<?xml version="1.0" encoding="UTF-8"?>
<svg xmlns="http://www.w3.org/2000/svg" xmlns:xlink="http://www.w3.org/1999/xlink" width="30pt" height="30pt" viewBox="0 0 30 30" version="1.1">
<g id="surface1">
<path style=" stroke:none;fill-rule:nonzero;fill:rgb(87.45098%,92.156863%,98.039216%);fill-opacity:1;" d="M 28.699219 10.910156 L 26.675781 10.910156 C 26.542969 10.910156 26.421875 10.941406 26.308594 10.992188 C 26.324219 11.21875 26.332031 11.441406 26.332031 11.671875 L 26.332031 13.351562 C 26.601562 13.582031 26.839844 13.847656 27.042969 14.140625 L 28.699219 14.140625 C 29.171875 14.140625 29.558594 13.753906 29.558594 13.28125 L 29.558594 11.769531 C 29.558594 11.296875 29.171875 10.910156 28.699219 10.910156 Z M 28.699219 10.910156 "/>
<path style=" stroke:none;fill-rule:nonzero;fill:rgb(69.411765%,85.882353%,98.823529%);fill-opacity:1;" d="M 27.707031 13.28125 L 27.707031 11.769531 C 27.707031 11.296875 28.09375 10.910156 28.566406 10.910156 L 26.675781 10.910156 C 26.542969 10.910156 26.421875 10.941406 26.308594 10.992188 C 26.324219 11.21875 26.332031 11.441406 26.332031 11.671875 L 26.332031 13.351562 C 26.601562 13.582031 26.839844 13.847656 27.042969 14.140625 L 28.566406 14.140625 C 28.09375 14.140625 27.707031 13.753906 27.707031 13.28125 Z M 27.707031 13.28125 "/>
<path style=" stroke:none;fill-rule:nonzero;fill:rgb(87.45098%,92.156863%,98.039216%);fill-opacity:1;" d="M 3.207031 13.351562 L 3.207031 11.671875 C 3.207031 11.414062 3.214844 11.160156 3.234375 10.910156 L 1.296875 10.910156 C 0.824219 10.910156 0.4375 11.296875 0.4375 11.769531 L 0.4375 13.28125 C 0.4375 13.753906 0.824219 14.140625 1.296875 14.140625 L 2.492188 14.140625 C 2.695312 13.847656 2.9375 13.582031 3.207031 13.351562 Z M 3.207031 13.351562 "/>
<path style=" stroke:none;fill-rule:nonzero;fill:rgb(69.411765%,85.882353%,98.823529%);fill-opacity:1;" d="M 1.835938 13.28125 L 1.835938 11.769531 C 1.835938 11.296875 2.222656 10.910156 2.695312 10.910156 L 1.296875 10.910156 C 0.824219 10.910156 0.4375 11.296875 0.4375 11.769531 L 0.4375 13.28125 C 0.4375 13.753906 0.824219 14.140625 1.296875 14.140625 L 2.492188 14.140625 C 2.496094 14.132812 2.503906 14.125 2.507812 14.117188 C 2.125 14.03125 1.835938 13.6875 1.835938 13.28125 Z M 1.835938 13.28125 "/>
<path style=" stroke:none;fill-rule:nonzero;fill:rgb(100%,27.843137%,33.72549%);fill-opacity:1;" d="M 5.820312 12.398438 L 23.714844 12.398438 C 24.757812 12.398438 25.710938 12.789062 26.449219 13.425781 L 26.449219 11.730469 C 26.449219 9.933594 26.015625 8.226562 25.230469 6.929688 C 24.375 5.515625 23.207031 4.734375 21.933594 4.734375 L 7.605469 4.734375 C 6.332031 4.734375 5.160156 5.515625 4.304688 6.929688 C 3.523438 8.226562 3.089844 9.933594 3.089844 11.730469 L 3.089844 13.425781 C 3.824219 12.789062 4.78125 12.398438 5.820312 12.398438 Z M 5.820312 12.398438 "/>
<path style=" stroke:none;fill-rule:nonzero;fill:rgb(98.823529%,17.647059%,22.352941%);fill-opacity:1;" d="M 4.972656 11.730469 C 4.972656 9.933594 5.40625 8.226562 6.191406 6.929688 C 7.046875 5.515625 8.214844 4.734375 9.488281 4.734375 L 7.605469 4.734375 C 6.332031 4.734375 5.160156 5.515625 4.304688 6.929688 C 3.523438 8.226562 3.089844 9.933594 3.089844 11.730469 L 3.089844 13.425781 C 3.621094 12.964844 4.265625 12.636719 4.972656 12.488281 Z M 4.972656 11.730469 "/>
<path style=" stroke:none;fill-rule:nonzero;fill:rgb(37.647059%,72.156863%,99.607843%);fill-opacity:1;" d="M 5.820312 12.398438 L 23.714844 12.398438 C 24.152344 12.398438 24.574219 12.46875 24.96875 12.59375 L 24.96875 11.730469 C 24.96875 10.203125 24.613281 8.773438 23.96875 7.703125 C 23.390625 6.75 22.667969 6.226562 21.933594 6.226562 L 7.605469 6.226562 C 6.867188 6.226562 6.144531 6.75 5.570312 7.703125 C 4.921875 8.773438 4.566406 10.203125 4.566406 11.730469 L 4.566406 12.59375 C 4.964844 12.46875 5.386719 12.398438 5.820312 12.398438 Z M 5.820312 12.398438 "/>
<path style=" stroke:none;fill-rule:nonzero;fill:rgb(13.72549%,65.882353%,99.607843%);fill-opacity:1;" d="M 6.453125 11.730469 C 6.453125 10.203125 6.808594 8.773438 7.453125 7.703125 C 8.027344 6.75 8.75 6.226562 9.488281 6.226562 L 7.605469 6.226562 C 6.867188 6.226562 6.144531 6.75 5.570312 7.703125 C 4.921875 8.773438 4.566406 10.203125 4.566406 11.730469 L 4.566406 12.59375 C 4.964844 12.46875 5.386719 12.398438 5.820312 12.398438 L 6.453125 12.398438 Z M 6.453125 11.730469 "/>
<path style=" stroke:none;fill-rule:nonzero;fill:rgb(13.72549%,65.882353%,99.607843%);fill-opacity:1;" d="M 20.054688 8.675781 C 18.257812 8.675781 16.800781 10.144531 16.800781 11.960938 C 16.800781 12.109375 16.808594 12.253906 16.828125 12.398438 L 18.3125 12.398438 C 18.277344 12.257812 18.257812 12.113281 18.257812 11.960938 C 18.257812 10.960938 19.0625 10.148438 20.054688 10.148438 C 21.046875 10.148438 21.851562 10.960938 21.851562 11.960938 C 21.851562 12.113281 21.835938 12.257812 21.800781 12.398438 L 23.28125 12.398438 C 23.300781 12.253906 23.3125 12.109375 23.3125 11.960938 C 23.3125 10.144531 21.855469 8.675781 20.054688 8.675781 Z M 20.054688 8.675781 "/>
<path style=" stroke:none;fill-rule:nonzero;fill:rgb(13.72549%,65.882353%,99.607843%);fill-opacity:1;" d="M 20.054688 8.675781 C 18.257812 8.675781 16.800781 10.144531 16.800781 11.960938 C 16.800781 12.109375 16.808594 12.253906 16.828125 12.398438 L 18.3125 12.398438 C 18.277344 12.257812 18.257812 12.113281 18.257812 11.960938 C 18.257812 10.960938 19.0625 10.148438 20.054688 10.148438 C 21.046875 10.148438 21.851562 10.960938 21.851562 11.960938 C 21.851562 12.113281 21.835938 12.257812 21.800781 12.398438 L 23.28125 12.398438 C 23.300781 12.253906 23.3125 12.109375 23.3125 11.960938 C 23.3125 10.144531 21.855469 8.675781 20.054688 8.675781 Z M 20.054688 8.675781 "/>
<path style=" stroke:none;fill-rule:nonzero;fill:rgb(0.392157%,57.647059%,98.039216%);fill-opacity:1;" d="M 18.433594 11.175781 C 18.722656 9.988281 19.648438 9.058594 20.828125 8.769531 C 20.578125 8.707031 20.320312 8.675781 20.054688 8.675781 C 18.257812 8.675781 16.800781 10.144531 16.800781 11.960938 C 16.800781 12.109375 16.808594 12.253906 16.828125 12.398438 L 18.3125 12.398438 C 18.277344 12.257812 18.257812 12.113281 18.257812 11.960938 C 18.257812 11.679688 18.320312 11.414062 18.433594 11.175781 Z M 18.433594 11.175781 "/>
<path style=" stroke:none;fill-rule:nonzero;fill:rgb(100%,39.607843%,43.529412%);fill-opacity:1;" d="M 23.714844 12.332031 L 5.820312 12.332031 C 3.511719 12.332031 1.621094 14.222656 1.621094 16.53125 L 1.621094 20.828125 C 1.683594 20.808594 1.75 20.800781 1.816406 20.800781 L 11.597656 20.800781 C 11.726562 20.625 11.933594 20.511719 12.164062 20.511719 L 17.371094 20.511719 C 17.605469 20.511719 17.8125 20.625 17.941406 20.800781 L 27.722656 20.800781 C 27.789062 20.800781 27.855469 20.808594 27.917969 20.828125 L 27.917969 16.53125 C 27.917969 14.222656 26.027344 12.332031 23.714844 12.332031 Z M 23.714844 12.332031 "/>
<path style=" stroke:none;fill-rule:nonzero;fill:rgb(100%,27.843137%,33.72549%);fill-opacity:1;" d="M 4.378906 16.53125 C 4.378906 14.222656 6.269531 12.332031 8.578125 12.332031 L 5.820312 12.332031 C 3.511719 12.332031 1.621094 14.222656 1.621094 16.53125 L 1.621094 20.828125 C 1.683594 20.808594 1.75 20.800781 1.816406 20.800781 L 4.378906 20.800781 Z M 4.378906 16.53125 "/>
<path style=" stroke:none;fill-rule:nonzero;fill:rgb(100%,27.843137%,33.72549%);fill-opacity:1;" d="M 17.832031 16.433594 C 18.609375 16.433594 19.332031 16.027344 19.738281 15.363281 L 21.597656 12.332031 L 7.941406 12.332031 L 9.796875 15.363281 C 10.207031 16.027344 10.929688 16.433594 11.707031 16.433594 Z M 17.832031 16.433594 "/>
<path style=" stroke:none;fill-rule:nonzero;fill:rgb(98.823529%,17.647059%,22.352941%);fill-opacity:1;" d="M 12.332031 15.363281 L 10.472656 12.332031 L 7.941406 12.332031 L 9.796875 15.363281 C 10.207031 16.027344 10.929688 16.433594 11.707031 16.433594 L 14.242188 16.433594 C 13.460938 16.433594 12.738281 16.027344 12.332031 15.363281 Z M 12.332031 15.363281 "/>
<path style=" stroke:none;fill-rule:nonzero;fill:rgb(100%,82.745098%,0.392157%);fill-opacity:1;" d="M 25.84375 16.546875 C 25.84375 17.492188 25.078125 18.257812 24.132812 18.257812 C 23.1875 18.257812 22.417969 17.492188 22.417969 16.546875 C 22.417969 15.601562 23.1875 14.832031 24.132812 14.832031 C 25.078125 14.832031 25.84375 15.601562 25.84375 16.546875 Z M 25.84375 16.546875 "/>
<path style=" stroke:none;fill-rule:nonzero;fill:rgb(100%,82.745098%,0.392157%);fill-opacity:1;" d="M 7.117188 16.546875 C 7.117188 17.492188 6.351562 18.257812 5.40625 18.257812 C 4.460938 18.257812 3.691406 17.492188 3.691406 16.546875 C 3.691406 15.601562 4.460938 14.832031 5.40625 14.832031 C 6.351562 14.832031 7.117188 15.601562 7.117188 16.546875 Z M 7.117188 16.546875 "/>
<path style=" stroke:none;fill-rule:nonzero;fill:rgb(100%,76.078431%,4.705882%);fill-opacity:1;" d="M 24.117188 16.546875 C 24.117188 15.910156 24.464844 15.355469 24.980469 15.058594 C 24.730469 14.914062 24.441406 14.832031 24.132812 14.832031 C 23.1875 14.832031 22.417969 15.601562 22.417969 16.546875 C 22.417969 17.492188 23.1875 18.257812 24.132812 18.257812 C 24.441406 18.257812 24.730469 18.175781 24.980469 18.035156 C 24.464844 17.738281 24.117188 17.183594 24.117188 16.546875 Z M 24.117188 16.546875 "/>
<path style=" stroke:none;fill-rule:nonzero;fill:rgb(100%,76.078431%,4.705882%);fill-opacity:1;" d="M 5.390625 16.546875 C 5.390625 15.910156 5.738281 15.355469 6.253906 15.058594 C 6.003906 14.914062 5.714844 14.832031 5.40625 14.832031 C 4.460938 14.832031 3.691406 15.601562 3.691406 16.546875 C 3.691406 17.492188 4.460938 18.257812 5.40625 18.257812 C 5.714844 18.257812 6.003906 18.175781 6.253906 18.035156 C 5.738281 17.738281 5.390625 17.183594 5.390625 16.546875 Z M 5.390625 16.546875 "/>
<path style=" stroke:none;fill-rule:nonzero;fill:rgb(40%,36.862745%,40.784314%);fill-opacity:1;" d="M 21.777344 22.550781 L 21.777344 24.425781 C 21.777344 24.90625 22.167969 25.296875 22.648438 25.296875 L 26.496094 25.296875 C 26.976562 25.296875 27.367188 24.90625 27.367188 24.425781 L 27.367188 22.550781 Z M 21.777344 22.550781 "/>
<path style=" stroke:none;fill-rule:nonzero;fill:rgb(32.941176%,30.588235%,33.333333%);fill-opacity:1;" d="M 24.339844 24.425781 L 24.339844 22.550781 L 21.777344 22.550781 L 21.777344 24.425781 C 21.777344 24.90625 22.167969 25.296875 22.648438 25.296875 L 25.210938 25.296875 C 24.730469 25.296875 24.339844 24.90625 24.339844 24.425781 Z M 24.339844 24.425781 "/>
<path style=" stroke:none;fill-rule:nonzero;fill:rgb(40%,36.862745%,40.784314%);fill-opacity:1;" d="M 2.167969 22.550781 L 2.167969 24.425781 C 2.167969 24.90625 2.5625 25.296875 3.039062 25.296875 L 6.890625 25.296875 C 7.367188 25.296875 7.757812 24.90625 7.757812 24.425781 L 7.757812 22.550781 Z M 2.167969 22.550781 "/>
<path style=" stroke:none;fill-rule:nonzero;fill:rgb(32.941176%,30.588235%,33.333333%);fill-opacity:1;" d="M 4.730469 24.425781 L 4.730469 22.550781 L 2.167969 22.550781 L 2.167969 24.425781 C 2.167969 24.90625 2.5625 25.296875 3.039062 25.296875 L 5.601562 25.296875 C 5.125 25.296875 4.730469 24.90625 4.730469 24.425781 Z M 4.730469 24.425781 "/>
<path style=" stroke:none;fill-rule:nonzero;fill:rgb(87.45098%,92.156863%,98.039216%);fill-opacity:1;" d="M 11.511719 22.300781 L 11.511719 20.929688 C 11.511719 20.773438 11.566406 20.625 11.65625 20.507812 L 1.816406 20.507812 C 1.425781 20.507812 1.105469 20.828125 1.105469 21.214844 L 1.105469 22.015625 C 1.105469 22.40625 1.425781 22.726562 1.816406 22.726562 L 11.65625 22.726562 C 11.566406 22.605469 11.511719 22.460938 11.511719 22.300781 Z M 11.511719 22.300781 "/>
<path style=" stroke:none;fill-rule:nonzero;fill:rgb(69.411765%,85.882353%,98.823529%);fill-opacity:1;" d="M 3.667969 22.015625 L 3.667969 21.214844 C 3.667969 20.828125 3.988281 20.507812 4.378906 20.507812 L 1.816406 20.507812 C 1.425781 20.507812 1.105469 20.828125 1.105469 21.214844 L 1.105469 22.015625 C 1.105469 22.40625 1.425781 22.726562 1.816406 22.726562 L 4.378906 22.726562 C 3.988281 22.726562 3.667969 22.40625 3.667969 22.015625 Z M 3.667969 22.015625 "/>
<path style=" stroke:none;fill-rule:nonzero;fill:rgb(87.45098%,92.156863%,98.039216%);fill-opacity:1;" d="M 27.722656 20.507812 L 17.882812 20.507812 C 17.96875 20.625 18.023438 20.773438 18.023438 20.929688 L 18.023438 22.300781 C 18.023438 22.460938 17.96875 22.605469 17.882812 22.726562 L 27.722656 22.726562 C 28.113281 22.726562 28.429688 22.40625 28.429688 22.015625 L 28.429688 21.214844 C 28.429688 20.828125 28.113281 20.507812 27.722656 20.507812 Z M 27.722656 20.507812 "/>
<path style=" stroke:none;fill-rule:nonzero;fill:rgb(69.411765%,85.882353%,98.823529%);fill-opacity:1;" d="M 17.546875 23.011719 L 11.988281 23.011719 C 11.597656 23.011719 11.277344 22.691406 11.277344 22.300781 L 11.277344 20.929688 C 11.277344 20.539062 11.597656 20.21875 11.988281 20.21875 L 17.546875 20.21875 C 17.9375 20.21875 18.257812 20.539062 18.257812 20.929688 L 18.257812 22.300781 C 18.257812 22.691406 17.9375 23.011719 17.546875 23.011719 Z M 17.546875 23.011719 "/>
<path style=" stroke:none;fill-rule:nonzero;fill:rgb(54.509804%,79.215686%,100%);fill-opacity:1;" d="M 13.839844 22.300781 L 13.839844 20.929688 C 13.839844 20.539062 14.160156 20.21875 14.550781 20.21875 L 11.988281 20.21875 C 11.597656 20.21875 11.277344 20.539062 11.277344 20.929688 L 11.277344 22.300781 C 11.277344 22.691406 11.597656 23.011719 11.988281 23.011719 L 14.550781 23.011719 C 14.160156 23.011719 13.839844 22.691406 13.839844 22.300781 Z M 13.839844 22.300781 "/>
<path style=" stroke:none;fill-rule:nonzero;fill:rgb(1.960784%,1.568627%,0.784314%);fill-opacity:1;" d="M 28.703125 10.453125 L 26.820312 10.453125 C 26.503906 7.511719 24.824219 4.277344 21.933594 4.277344 L 7.605469 4.277344 C 6.171875 4.277344 4.867188 5.125 3.929688 6.664062 C 3.285156 7.726562 2.867188 9.042969 2.714844 10.453125 L 1.296875 10.453125 C 0.582031 10.453125 0 11.035156 0 11.753906 L 0 13.265625 C 0 13.980469 0.582031 14.5625 1.296875 14.5625 L 1.613281 14.5625 C 1.335938 15.15625 1.183594 15.820312 1.183594 16.515625 L 1.183594 20.242188 C 0.871094 20.449219 0.667969 20.800781 0.667969 21.199219 L 0.667969 22 C 0.667969 22.605469 1.136719 23.101562 1.730469 23.144531 L 1.730469 24.410156 C 1.730469 25.132812 2.316406 25.722656 3.039062 25.722656 L 6.890625 25.722656 C 7.609375 25.722656 8.199219 25.132812 8.199219 24.410156 L 8.199219 23.148438 L 11.230469 23.148438 C 11.433594 23.324219 11.699219 23.433594 11.988281 23.433594 L 17.546875 23.433594 C 17.839844 23.433594 18.101562 23.324219 18.304688 23.148438 L 21.339844 23.148438 L 21.339844 24.410156 C 21.339844 25.132812 21.925781 25.722656 22.648438 25.722656 L 26.496094 25.722656 C 27.21875 25.722656 27.808594 25.132812 27.808594 24.410156 L 27.808594 23.144531 C 28.402344 23.097656 28.871094 22.605469 28.871094 22 L 28.871094 21.199219 C 28.871094 20.800781 28.664062 20.449219 28.355469 20.242188 L 28.355469 18.773438 C 28.355469 18.53125 28.160156 18.332031 27.917969 18.332031 C 27.671875 18.332031 27.476562 18.53125 27.476562 18.773438 L 27.476562 20.050781 L 18.304688 20.050781 C 18.097656 19.867188 17.824219 19.765625 17.546875 19.765625 L 11.988281 19.765625 C 11.710938 19.765625 11.4375 19.871094 11.230469 20.050781 L 2.0625 20.050781 L 2.0625 16.515625 C 2.0625 14.410156 3.796875 12.757812 5.820312 12.757812 L 7.695312 12.757812 L 9.425781 15.578125 C 9.90625 16.367188 10.78125 16.855469 11.707031 16.855469 L 17.832031 16.855469 C 18.753906 16.855469 19.628906 16.367188 20.113281 15.578125 L 21.84375 12.753906 L 23.714844 12.753906 C 25.738281 12.753906 27.476562 14.40625 27.476562 16.515625 L 27.476562 16.722656 C 27.476562 16.964844 27.675781 17.160156 27.917969 17.160156 C 28.160156 17.160156 28.355469 16.964844 28.355469 16.722656 C 28.34375 16.609375 28.4375 15.667969 27.921875 14.5625 L 28.703125 14.5625 C 29.417969 14.5625 30 13.980469 30 13.265625 L 30 11.753906 C 30 11.035156 29.417969 10.453125 28.703125 10.453125 Z M 1.296875 13.683594 C 1.066406 13.683594 0.878906 13.496094 0.878906 13.265625 L 0.878906 11.753906 C 0.878906 11.519531 1.066406 11.332031 1.296875 11.332031 L 2.65625 11.332031 C 2.652344 11.441406 2.648438 11.546875 2.648438 11.65625 L 2.648438 13.132812 C 2.46875 13.304688 2.300781 13.488281 2.152344 13.683594 Z M 7.320312 24.410156 C 7.320312 24.648438 7.125 24.84375 6.890625 24.84375 L 3.039062 24.84375 C 2.800781 24.84375 2.609375 24.648438 2.609375 24.410156 L 2.609375 23.148438 L 7.320312 23.148438 Z M 26.929688 24.410156 C 26.929688 24.648438 26.734375 24.84375 26.496094 24.84375 L 22.648438 24.84375 C 22.410156 24.84375 22.21875 24.648438 22.21875 24.410156 L 22.21875 23.148438 L 26.929688 23.148438 Z M 27.722656 20.929688 C 27.738281 20.929688 27.75 20.933594 27.765625 20.933594 C 27.773438 20.9375 27.777344 20.9375 27.785156 20.9375 C 27.902344 20.96875 27.992188 21.074219 27.992188 21.199219 L 27.992188 22 C 27.992188 22.144531 27.867188 22.269531 27.722656 22.269531 C 26.757812 22.269531 19.648438 22.269531 18.699219 22.269531 L 18.699219 20.929688 Z M 17.550781 20.644531 C 17.695312 20.644531 17.820312 20.769531 17.820312 20.914062 L 17.820312 22.285156 C 17.820312 22.421875 17.703125 22.554688 17.550781 22.554688 L 11.988281 22.554688 C 11.835938 22.554688 11.71875 22.421875 11.71875 22.285156 L 11.71875 20.914062 C 11.71875 20.769531 11.839844 20.644531 11.988281 20.644531 Z M 10.839844 20.929688 L 10.839844 22.269531 C 9.914062 22.269531 2.667969 22.269531 1.816406 22.269531 C 1.667969 22.269531 1.546875 22.144531 1.546875 22 L 1.546875 21.199219 C 1.546875 21.074219 1.636719 20.96875 1.753906 20.9375 C 1.757812 20.9375 1.765625 20.9375 1.769531 20.933594 C 1.785156 20.933594 1.800781 20.929688 1.816406 20.929688 Z M 5.007812 11.949219 L 5.007812 11.65625 C 5.007812 10.21875 5.339844 8.882812 5.945312 7.890625 C 6.4375 7.082031 7.027344 6.636719 7.605469 6.636719 L 13.976562 6.636719 C 14.21875 6.636719 14.414062 6.441406 14.414062 6.195312 C 14.414062 5.953125 14.21875 5.757812 13.976562 5.757812 L 7.605469 5.757812 C 6.707031 5.757812 5.851562 6.351562 5.195312 7.433594 C 4.507812 8.5625 4.128906 10.0625 4.128906 11.65625 L 4.128906 12.199219 C 3.921875 12.28125 3.722656 12.375 3.527344 12.484375 L 3.527344 11.65625 C 3.527344 10.109375 3.878906 8.445312 4.683594 7.121094 C 5.453125 5.855469 6.492188 5.15625 7.605469 5.15625 L 21.933594 5.15625 C 23.046875 5.15625 24.085938 5.855469 24.855469 7.121094 C 25.65625 8.4375 26.007812 10.09375 26.007812 11.65625 L 26.007812 12.484375 C 25.816406 12.375 25.617188 12.28125 25.410156 12.199219 L 25.410156 11.65625 C 25.410156 10.0625 25.03125 8.5625 24.34375 7.433594 C 23.683594 6.351562 22.828125 5.757812 21.933594 5.757812 L 16.027344 5.757812 C 15.78125 5.757812 15.585938 5.953125 15.585938 6.195312 C 15.585938 6.441406 15.78125 6.636719 16.027344 6.636719 L 21.933594 6.636719 C 22.511719 6.636719 23.101562 7.082031 23.59375 7.890625 C 24.195312 8.882812 24.53125 10.21875 24.53125 11.65625 L 24.53125 11.949219 C 24.296875 11.90625 24.019531 11.878906 23.753906 11.878906 C 23.75 9.839844 22.09375 8.183594 20.054688 8.183594 C 18.019531 8.183594 16.363281 9.839844 16.359375 11.878906 C 15.058594 11.878906 7.164062 11.878906 5.820312 11.878906 C 5.546875 11.878906 5.25 11.90625 5.007812 11.949219 Z M 19.363281 15.121094 C 19.039062 15.648438 18.453125 15.976562 17.832031 15.976562 L 11.707031 15.976562 C 11.085938 15.976562 10.5 15.648438 10.171875 15.121094 L 8.726562 12.757812 L 20.8125 12.757812 Z M 18.699219 11.878906 C 18.699219 11.128906 19.308594 10.523438 20.054688 10.523438 C 20.804688 10.523438 21.410156 11.128906 21.414062 11.878906 Z M 22.292969 11.878906 C 22.289062 10.644531 21.289062 9.644531 20.054688 9.644531 C 18.824219 9.644531 17.820312 10.644531 17.820312 11.878906 L 17.238281 11.878906 C 17.242188 10.324219 18.503906 9.0625 20.054688 9.0625 C 21.609375 9.0625 22.871094 10.324219 22.875 11.878906 Z M 29.121094 13.265625 C 29.121094 13.496094 28.933594 13.683594 28.703125 13.683594 L 27.386719 13.683594 C 27.234375 13.488281 27.066406 13.304688 26.886719 13.132812 L 26.886719 11.65625 C 26.886719 11.546875 26.886719 11.441406 26.882812 11.332031 L 28.703125 11.332031 C 28.933594 11.332031 29.121094 11.519531 29.121094 11.753906 Z M 29.121094 13.265625 "/>
<path style=" stroke:none;fill-rule:nonzero;fill:rgb(1.960784%,1.568627%,0.784314%);fill-opacity:1;" d="M 11.292969 17.628906 C 11.050781 17.628906 10.855469 17.824219 10.855469 18.066406 C 10.855469 18.308594 11.050781 18.507812 11.292969 18.507812 L 18.242188 18.507812 C 18.488281 18.507812 18.683594 18.308594 18.683594 18.066406 C 18.683594 17.824219 18.488281 17.628906 18.242188 17.628906 Z M 11.292969 17.628906 "/>
<path style=" stroke:none;fill-rule:nonzero;fill:rgb(1.960784%,1.568627%,0.784314%);fill-opacity:1;" d="M 24.132812 14.378906 C 22.945312 14.378906 21.980469 15.34375 21.980469 16.53125 C 21.980469 17.71875 22.945312 18.683594 24.132812 18.683594 C 25.320312 18.683594 26.285156 17.71875 26.285156 16.53125 C 26.285156 15.34375 25.320312 14.378906 24.132812 14.378906 Z M 24.132812 17.804688 C 23.429688 17.804688 22.859375 17.234375 22.859375 16.53125 C 22.859375 15.828125 23.429688 15.257812 24.132812 15.257812 C 24.835938 15.257812 25.40625 15.828125 25.40625 16.53125 C 25.40625 17.234375 24.835938 17.804688 24.132812 17.804688 Z M 24.132812 17.804688 "/>
<path style=" stroke:none;fill-rule:nonzero;fill:rgb(1.960784%,1.568627%,0.784314%);fill-opacity:1;" d="M 3.253906 16.53125 C 3.253906 17.71875 4.21875 18.683594 5.40625 18.683594 C 6.59375 18.683594 7.558594 17.71875 7.558594 16.53125 C 7.558594 15.34375 6.59375 14.378906 5.40625 14.378906 C 4.21875 14.378906 3.253906 15.34375 3.253906 16.53125 Z M 6.679688 16.53125 C 6.679688 17.234375 6.109375 17.804688 5.40625 17.804688 C 4.703125 17.804688 4.132812 17.234375 4.132812 16.53125 C 4.132812 15.828125 4.703125 15.257812 5.40625 15.257812 C 6.109375 15.257812 6.679688 15.828125 6.679688 16.53125 Z M 6.679688 16.53125 "/>
</g>
</svg>
