<?xml version="1.0" encoding="UTF-8"?>
<svg xmlns="http://www.w3.org/2000/svg" xmlns:xlink="http://www.w3.org/1999/xlink" width="30pt" height="30pt" viewBox="0 0 30 30" version="1.1">
<g id="surface1">
<path style=" stroke:none;fill-rule:nonzero;fill:rgb(87.45098%,92.156863%,98.039216%);fill-opacity:1;" d="M 29.113281 10.769531 L 27.027344 10.769531 C 26.894531 10.769531 26.765625 10.800781 26.652344 10.855469 C 26.664062 11.085938 26.671875 11.320312 26.671875 11.554688 L 26.671875 13.285156 C 26.949219 13.523438 27.199219 13.796875 27.410156 14.097656 L 29.113281 14.097656 C 29.601562 14.097656 30 13.699219 30 13.210938 L 30 11.65625 C 30 11.167969 29.601562 10.769531 29.113281 10.769531 Z M 29.113281 10.769531 "/>
<path style=" stroke:none;fill-rule:nonzero;fill:rgb(69.411765%,85.882353%,98.823529%);fill-opacity:1;" d="M 28.089844 13.210938 L 28.089844 11.65625 C 28.089844 11.167969 28.488281 10.769531 28.976562 10.769531 L 27.027344 10.769531 C 26.890625 10.769531 26.765625 10.800781 26.652344 10.855469 C 26.664062 11.085938 26.671875 11.320312 26.671875 11.554688 L 26.671875 13.285156 C 26.949219 13.523438 27.199219 13.796875 27.410156 14.097656 L 28.976562 14.097656 C 28.488281 14.097656 28.089844 13.699219 28.089844 13.210938 Z M 28.089844 13.210938 "/>
<path style=" stroke:none;fill-rule:nonzero;fill:rgb(87.45098%,92.156863%,98.039216%);fill-opacity:1;" d="M 2.851562 13.285156 L 2.851562 11.554688 C 2.851562 11.289062 2.859375 11.027344 2.878906 10.769531 L 0.886719 10.769531 C 0.398438 10.769531 0 11.167969 0 11.65625 L 0 13.210938 C 0 13.699219 0.398438 14.097656 0.886719 14.097656 L 2.117188 14.097656 C 2.324219 13.796875 2.574219 13.523438 2.851562 13.285156 Z M 2.851562 13.285156 "/>
<path style=" stroke:none;fill-rule:nonzero;fill:rgb(69.411765%,85.882353%,98.823529%);fill-opacity:1;" d="M 1.441406 13.210938 L 1.441406 11.65625 C 1.441406 11.167969 1.839844 10.769531 2.324219 10.769531 L 0.886719 10.769531 C 0.398438 10.769531 0 11.167969 0 11.65625 L 0 13.210938 C 0 13.699219 0.398438 14.097656 0.886719 14.097656 L 2.117188 14.097656 C 2.121094 14.089844 2.125 14.082031 2.132812 14.074219 C 1.738281 13.984375 1.441406 13.632812 1.441406 13.210938 Z M 1.441406 13.210938 "/>
<path style=" stroke:none;fill-rule:nonzero;fill:rgb(100%,27.843137%,33.72549%);fill-opacity:1;" d="M 5.542969 12.304688 L 23.980469 12.304688 C 25.050781 12.304688 26.035156 12.703125 26.792969 13.363281 L 26.792969 11.617188 C 26.792969 9.765625 26.347656 8.007812 25.539062 6.667969 C 24.660156 5.210938 23.453125 4.40625 22.144531 4.40625 L 7.382812 4.40625 C 6.070312 4.40625 4.863281 5.210938 3.984375 6.667969 C 3.175781 8.007812 2.730469 9.765625 2.730469 11.617188 L 2.730469 13.363281 C 3.488281 12.703125 4.472656 12.304688 5.542969 12.304688 Z M 5.542969 12.304688 "/>
<path style=" stroke:none;fill-rule:nonzero;fill:rgb(98.823529%,17.647059%,22.352941%);fill-opacity:1;" d="M 4.671875 11.617188 C 4.671875 9.765625 5.117188 8.007812 5.925781 6.667969 C 6.804688 5.210938 8.011719 4.40625 9.320312 4.40625 L 7.382812 4.40625 C 6.070312 4.40625 4.863281 5.210938 3.984375 6.667969 C 3.175781 8.007812 2.730469 9.765625 2.730469 11.617188 L 2.730469 13.363281 C 3.277344 12.886719 3.941406 12.546875 4.671875 12.394531 Z M 4.671875 11.617188 "/>
<path style=" stroke:none;fill-rule:nonzero;fill:rgb(37.647059%,72.156863%,99.607843%);fill-opacity:1;" d="M 5.542969 12.304688 L 23.980469 12.304688 C 24.429688 12.304688 24.863281 12.375 25.269531 12.503906 L 25.269531 11.617188 C 25.269531 10.042969 24.902344 8.570312 24.238281 7.46875 C 23.644531 6.484375 22.902344 5.945312 22.144531 5.945312 L 7.382812 5.945312 C 6.621094 5.945312 5.878906 6.484375 5.285156 7.46875 C 4.621094 8.570312 4.253906 10.042969 4.253906 11.617188 L 4.253906 12.503906 C 4.660156 12.375 5.09375 12.304688 5.542969 12.304688 Z M 5.542969 12.304688 "/>
<path style=" stroke:none;fill-rule:nonzero;fill:rgb(13.72549%,65.882353%,99.607843%);fill-opacity:1;" d="M 6.195312 11.617188 C 6.195312 10.042969 6.5625 8.570312 7.226562 7.46875 C 7.820312 6.484375 8.5625 5.945312 9.320312 5.945312 L 7.382812 5.945312 C 6.621094 5.945312 5.878906 6.484375 5.285156 7.46875 C 4.621094 8.570312 4.253906 10.042969 4.253906 11.617188 L 4.253906 12.503906 C 4.660156 12.375 5.09375 12.304688 5.542969 12.304688 L 6.195312 12.304688 Z M 6.195312 11.617188 "/>
<path style=" stroke:none;fill-rule:nonzero;fill:rgb(13.72549%,65.882353%,99.607843%);fill-opacity:1;" d="M 20.207031 8.46875 C 18.355469 8.46875 16.855469 9.984375 16.855469 11.851562 C 16.855469 12.003906 16.863281 12.15625 16.882812 12.304688 L 18.414062 12.304688 C 18.375 12.160156 18.355469 12.007812 18.355469 11.851562 C 18.355469 10.820312 19.1875 9.984375 20.207031 9.984375 C 21.230469 9.984375 22.0625 10.820312 22.0625 11.851562 C 22.0625 12.007812 22.042969 12.160156 22.003906 12.304688 L 23.53125 12.304688 C 23.550781 12.15625 23.5625 12.003906 23.5625 11.851562 C 23.5625 9.984375 22.0625 8.46875 20.207031 8.46875 Z M 20.207031 8.46875 "/>
<path style=" stroke:none;fill-rule:nonzero;fill:rgb(13.72549%,65.882353%,99.607843%);fill-opacity:1;" d="M 20.207031 8.46875 C 18.355469 8.46875 16.855469 9.984375 16.855469 11.851562 C 16.855469 12.003906 16.863281 12.15625 16.882812 12.304688 L 18.414062 12.304688 C 18.375 12.160156 18.355469 12.007812 18.355469 11.851562 C 18.355469 10.820312 19.1875 9.984375 20.207031 9.984375 C 21.230469 9.984375 22.0625 10.820312 22.0625 11.851562 C 22.0625 12.007812 22.042969 12.160156 22.003906 12.304688 L 23.53125 12.304688 C 23.550781 12.15625 23.5625 12.003906 23.5625 11.851562 C 23.5625 9.984375 22.0625 8.46875 20.207031 8.46875 Z M 20.207031 8.46875 "/>
<path style=" stroke:none;fill-rule:nonzero;fill:rgb(0.392157%,57.647059%,98.039216%);fill-opacity:1;" d="M 18.539062 11.042969 C 18.835938 9.820312 19.789062 8.859375 21.003906 8.5625 C 20.75 8.5 20.484375 8.46875 20.207031 8.46875 C 18.355469 8.46875 16.855469 9.984375 16.855469 11.851562 C 16.855469 12.003906 16.863281 12.15625 16.882812 12.304688 L 18.414062 12.304688 C 18.375 12.160156 18.355469 12.007812 18.355469 11.851562 C 18.355469 11.5625 18.421875 11.289062 18.539062 11.042969 Z M 18.539062 11.042969 "/>
<path style=" stroke:none;fill-rule:nonzero;fill:rgb(100%,39.607843%,43.529412%);fill-opacity:1;" d="M 23.980469 12.234375 L 5.542969 12.234375 C 3.164062 12.234375 1.21875 14.183594 1.21875 16.5625 L 1.21875 20.988281 C 1.28125 20.96875 1.347656 20.957031 1.417969 20.957031 L 11.492188 20.957031 C 11.628906 20.78125 11.839844 20.664062 12.078125 20.664062 L 17.445312 20.664062 C 17.683594 20.664062 17.894531 20.78125 18.03125 20.957031 L 28.105469 20.957031 C 28.175781 20.957031 28.242188 20.96875 28.304688 20.988281 L 28.304688 16.5625 C 28.304688 14.183594 26.359375 12.234375 23.980469 12.234375 Z M 23.980469 12.234375 "/>
<path style=" stroke:none;fill-rule:nonzero;fill:rgb(100%,27.843137%,33.72549%);fill-opacity:1;" d="M 4.058594 16.5625 C 4.058594 14.183594 6.003906 12.234375 8.386719 12.234375 L 5.542969 12.234375 C 3.164062 12.234375 1.21875 14.183594 1.21875 16.5625 L 1.21875 20.988281 C 1.28125 20.96875 1.347656 20.957031 1.417969 20.957031 L 4.058594 20.957031 Z M 4.058594 16.5625 "/>
<path style=" stroke:none;fill-rule:nonzero;fill:rgb(100%,27.843137%,33.72549%);fill-opacity:1;" d="M 17.914062 16.460938 C 18.71875 16.460938 19.464844 16.042969 19.882812 15.359375 L 21.796875 12.234375 L 7.726562 12.234375 L 9.640625 15.359375 C 10.0625 16.042969 10.804688 16.460938 11.609375 16.460938 Z M 17.914062 16.460938 "/>
<path style=" stroke:none;fill-rule:nonzero;fill:rgb(98.823529%,17.647059%,22.352941%);fill-opacity:1;" d="M 12.253906 15.359375 L 10.335938 12.234375 L 7.726562 12.234375 L 9.640625 15.359375 C 10.0625 16.042969 10.804688 16.460938 11.609375 16.460938 L 14.21875 16.460938 C 13.417969 16.460938 12.671875 16.042969 12.253906 15.359375 Z M 12.253906 15.359375 "/>
<path style=" stroke:none;fill-rule:nonzero;fill:rgb(100%,27.843137%,33.72549%);fill-opacity:1;" d="M 18.339844 18.613281 L 11.183594 18.613281 C 10.933594 18.613281 10.730469 18.410156 10.730469 18.160156 C 10.730469 17.910156 10.933594 17.707031 11.183594 17.707031 L 18.339844 17.707031 C 18.589844 17.707031 18.792969 17.910156 18.792969 18.160156 C 18.792969 18.410156 18.589844 18.613281 18.339844 18.613281 Z M 18.339844 18.613281 "/>
<path style=" stroke:none;fill-rule:nonzero;fill:rgb(100%,82.745098%,0.392157%);fill-opacity:1;" d="M 26.171875 16.578125 C 26.171875 17.550781 25.382812 18.339844 24.40625 18.339844 C 23.433594 18.339844 22.644531 17.550781 22.644531 16.578125 C 22.644531 15.601562 23.433594 14.8125 24.40625 14.8125 C 25.382812 14.8125 26.171875 15.601562 26.171875 16.578125 Z M 26.171875 16.578125 "/>
<path style=" stroke:none;fill-rule:nonzero;fill:rgb(100%,82.745098%,0.392157%);fill-opacity:1;" d="M 6.878906 16.578125 C 6.878906 17.550781 6.089844 18.339844 5.117188 18.339844 C 4.140625 18.339844 3.351562 17.550781 3.351562 16.578125 C 3.351562 15.601562 4.140625 14.8125 5.117188 14.8125 C 6.089844 14.8125 6.878906 15.601562 6.878906 16.578125 Z M 6.878906 16.578125 "/>
<path style=" stroke:none;fill-rule:nonzero;fill:rgb(100%,76.078431%,4.705882%);fill-opacity:1;" d="M 24.394531 16.578125 C 24.394531 15.921875 24.75 15.347656 25.28125 15.042969 C 25.023438 14.898438 24.726562 14.8125 24.40625 14.8125 C 23.433594 14.8125 22.644531 15.601562 22.644531 16.578125 C 22.644531 17.550781 23.433594 18.339844 24.40625 18.339844 C 24.726562 18.339844 25.023438 18.257812 25.28125 18.109375 C 24.75 17.804688 24.394531 17.230469 24.394531 16.578125 Z M 24.394531 16.578125 "/>
<path style=" stroke:none;fill-rule:nonzero;fill:rgb(100%,76.078431%,4.705882%);fill-opacity:1;" d="M 5.101562 16.578125 C 5.101562 15.921875 5.460938 15.347656 5.992188 15.042969 C 5.734375 14.898438 5.433594 14.8125 5.117188 14.8125 C 4.140625 14.8125 3.351562 15.601562 3.351562 16.578125 C 3.351562 17.550781 4.140625 18.339844 5.117188 18.339844 C 5.433594 18.339844 5.734375 18.257812 5.992188 18.109375 C 5.460938 17.804688 5.101562 17.230469 5.101562 16.578125 Z M 5.101562 16.578125 "/>
<path style=" stroke:none;fill-rule:nonzero;fill:rgb(40%,36.862745%,40.784314%);fill-opacity:1;" d="M 21.984375 22.761719 L 21.984375 24.695312 C 21.984375 25.1875 22.386719 25.59375 22.878906 25.59375 L 26.84375 25.59375 C 27.335938 25.59375 27.742188 25.1875 27.742188 24.695312 L 27.742188 22.761719 Z M 21.984375 22.761719 "/>
<path style=" stroke:none;fill-rule:nonzero;fill:rgb(32.941176%,30.588235%,33.333333%);fill-opacity:1;" d="M 24.625 24.695312 L 24.625 22.761719 L 21.984375 22.761719 L 21.984375 24.695312 C 21.984375 25.1875 22.386719 25.59375 22.878906 25.59375 L 25.519531 25.59375 C 25.027344 25.59375 24.625 25.1875 24.625 24.695312 Z M 24.625 24.695312 "/>
<path style=" stroke:none;fill-rule:nonzero;fill:rgb(40%,36.862745%,40.784314%);fill-opacity:1;" d="M 1.78125 22.761719 L 1.78125 24.695312 C 1.78125 25.1875 2.1875 25.59375 2.679688 25.59375 L 6.644531 25.59375 C 7.136719 25.59375 7.539062 25.1875 7.539062 24.695312 L 7.539062 22.761719 Z M 1.78125 22.761719 "/>
<path style=" stroke:none;fill-rule:nonzero;fill:rgb(32.941176%,30.588235%,33.333333%);fill-opacity:1;" d="M 4.421875 24.695312 L 4.421875 22.761719 L 1.78125 22.761719 L 1.78125 24.695312 C 1.78125 25.1875 2.1875 25.59375 2.679688 25.59375 L 5.320312 25.59375 C 4.824219 25.59375 4.421875 25.1875 4.421875 24.695312 Z M 4.421875 24.695312 "/>
<path style=" stroke:none;fill-rule:nonzero;fill:rgb(87.45098%,92.156863%,98.039216%);fill-opacity:1;" d="M 11.410156 22.503906 L 11.410156 21.09375 C 11.410156 20.929688 11.464844 20.777344 11.554688 20.65625 L 1.417969 20.65625 C 1.015625 20.65625 0.6875 20.984375 0.6875 21.386719 L 0.6875 22.210938 C 0.6875 22.613281 1.015625 22.941406 1.417969 22.941406 L 11.554688 22.941406 C 11.464844 22.820312 11.410156 22.667969 11.410156 22.503906 Z M 11.410156 22.503906 "/>
<path style=" stroke:none;fill-rule:nonzero;fill:rgb(69.411765%,85.882353%,98.823529%);fill-opacity:1;" d="M 3.328125 22.210938 L 3.328125 21.386719 C 3.328125 20.984375 3.65625 20.65625 4.058594 20.65625 L 1.417969 20.65625 C 1.015625 20.65625 0.6875 20.984375 0.6875 21.386719 L 0.6875 22.210938 C 0.6875 22.613281 1.015625 22.941406 1.417969 22.941406 L 4.058594 22.941406 C 3.65625 22.941406 3.328125 22.613281 3.328125 22.210938 Z M 3.328125 22.210938 "/>
<path style=" stroke:none;fill-rule:nonzero;fill:rgb(87.45098%,92.156863%,98.039216%);fill-opacity:1;" d="M 28.105469 20.65625 L 17.96875 20.65625 C 18.0625 20.777344 18.117188 20.929688 18.117188 21.09375 L 18.117188 22.503906 C 18.117188 22.667969 18.0625 22.820312 17.96875 22.941406 L 28.105469 22.941406 C 28.507812 22.941406 28.835938 22.613281 28.835938 22.210938 L 28.835938 21.386719 C 28.835938 20.984375 28.507812 20.65625 28.105469 20.65625 Z M 28.105469 20.65625 "/>
<path style=" stroke:none;fill-rule:nonzero;fill:rgb(69.411765%,85.882353%,98.823529%);fill-opacity:1;" d="M 17.625 23.238281 L 11.898438 23.238281 C 11.496094 23.238281 11.167969 22.90625 11.167969 22.503906 L 11.167969 21.09375 C 11.167969 20.691406 11.496094 20.359375 11.898438 20.359375 L 17.625 20.359375 C 18.027344 20.359375 18.355469 20.691406 18.355469 21.09375 L 18.355469 22.503906 C 18.355469 22.90625 18.027344 23.238281 17.625 23.238281 Z M 17.625 23.238281 "/>
<path style=" stroke:none;fill-rule:nonzero;fill:rgb(54.509804%,79.215686%,100%);fill-opacity:1;" d="M 13.808594 22.503906 L 13.808594 21.09375 C 13.808594 20.691406 14.136719 20.359375 14.539062 20.359375 L 11.898438 20.359375 C 11.496094 20.359375 11.167969 20.691406 11.167969 21.09375 L 11.167969 22.503906 C 11.167969 22.90625 11.496094 23.238281 11.898438 23.238281 L 14.539062 23.238281 C 14.136719 23.238281 13.808594 22.90625 13.808594 22.503906 Z M 13.808594 22.503906 "/>
</g>
</svg>
